<svg xmlns="http://www.w3.org/2000/svg" viewBox="0 0 1000 300" width="1000" height="300"
     role="img" aria-label="Comic cover: Aryan Rane, software developer and AI-ML engineer, agentic AI systems and LLM inference infrastructure">
  <defs>
    <pattern id="tone" width="7" height="7" patternUnits="userSpaceOnUse" patternTransform="rotate(30)">
      <circle cx="2" cy="2" r="1.5" fill="#DE3226" fill-opacity="0.30"/>
    </pattern>
    <pattern id="tone2" width="6" height="6" patternUnits="userSpaceOnUse" patternTransform="rotate(15)">
      <circle cx="2" cy="2" r="1.15" fill="#15120F" fill-opacity="0.30"/>
    </pattern>

  </defs>
  <style>
    .fade { opacity: 0; animation: fade .55s ease-out both; }
    .rise { opacity: 0; animation: rise .6s cubic-bezier(.2,.9,.3,1) both; }
    .pop  { opacity: 0; animation: pop .5s cubic-bezier(.24,1.6,.4,1) both; }
    .slam { opacity: 0; animation: slam .42s cubic-bezier(.3,1.4,.5,1) both; }
    .draw { stroke-dasharray: 1; stroke-dashoffset: 1;
             animation: draw .7s cubic-bezier(.2,.8,.3,1) both; }
    .spin { animation: spin 3.4s linear infinite; }
    .beat { animation: beat 2.6s ease-in-out infinite; }
    .drift{ animation: drift 3.2s ease-in-out infinite; }
    .nudgeR{ animation: nudgeR 2.4s ease-in-out infinite; }
    .nudgeL{ animation: nudgeL 2.4s ease-in-out infinite; }

    @keyframes fade { to { opacity: 1; } }
    @keyframes rise { from { transform: translateY(10px); } to { opacity: 1; transform: none; } }
    @keyframes pop  { from { transform: scale(.72); } to { opacity: 1; transform: scale(1); } }
    @keyframes slam { from { transform: scale(2.1) rotate(-9deg); }
                       to   { opacity: 1; transform: scale(1) rotate(0); } }
    @keyframes draw { to { stroke-dashoffset: 0; } }
    @keyframes spin { to { transform: rotate(360deg); } }
    @keyframes beat { 0%,100% { transform: scale(1); } 50% { transform: scale(1.035); } }
    @keyframes drift{ 0%,100% { transform: translateY(0); } 50% { transform: translateY(-4px); } }
    @keyframes nudgeR{ 0%,100% { transform: translateX(0); } 50% { transform: translateX(7px); } }
    @keyframes nudgeL{ 0%,100% { transform: translateX(0); } 50% { transform: translateX(-7px); } }

    @media (prefers-reduced-motion: reduce) {
      .fade,.pop,.slam,.rise { opacity: 1; animation: none; transform: none; }
      .draw { stroke-dashoffset: 0; animation: none; }
      .spin,.beat,.drift,.nudgeR,.nudgeL { animation: none; }
    }
  </style>
  <rect width="1000" height="300" fill="#F4F0E4"/>
  <g class="fade"><circle cx="806" cy="116" r="88" fill="url(#tone)"/></g>
  <line x1="934" y1="56" x2="752" y2="56" stroke="#15120F" stroke-width="2.1" stroke-linecap="round" opacity="0.22" pathLength="1" class="draw" style="animation-delay:0.00s"/>
  <line x1="956" y1="67" x2="755" y2="67" stroke="#15120F" stroke-width="2.2" stroke-linecap="round" opacity="0.22" pathLength="1" class="draw" style="animation-delay:0.03s"/>
  <line x1="959" y1="78" x2="777" y2="78" stroke="#15120F" stroke-width="1.9" stroke-linecap="round" opacity="0.22" pathLength="1" class="draw" style="animation-delay:0.06s"/>
  <line x1="941" y1="86" x2="779" y2="86" stroke="#15120F" stroke-width="1.5" stroke-linecap="round" opacity="0.22" pathLength="1" class="draw" style="animation-delay:0.09s"/>
  <line x1="942" y1="100" x2="796" y2="100" stroke="#15120F" stroke-width="2.4" stroke-linecap="round" opacity="0.22" pathLength="1" class="draw" style="animation-delay:0.12s"/>
  <line x1="946" y1="107" x2="692" y2="107" stroke="#15120F" stroke-width="1.5" stroke-linecap="round" opacity="0.22" pathLength="1" class="draw" style="animation-delay:0.15s"/>
  <line x1="961" y1="118" x2="717" y2="118" stroke="#15120F" stroke-width="2.1" stroke-linecap="round" opacity="0.22" pathLength="1" class="draw" style="animation-delay:0.18s"/>
  <line x1="946" y1="129" x2="783" y2="129" stroke="#15120F" stroke-width="2.4" stroke-linecap="round" opacity="0.22" pathLength="1" class="draw" style="animation-delay:0.21s"/>
  <line x1="948" y1="140" x2="763" y2="140" stroke="#15120F" stroke-width="1.8" stroke-linecap="round" opacity="0.22" pathLength="1" class="draw" style="animation-delay:0.24s"/>
  <line x1="937" y1="152" x2="800" y2="152" stroke="#15120F" stroke-width="2.5" stroke-linecap="round" opacity="0.22" pathLength="1" class="draw" style="animation-delay:0.27s"/>
  <path d="M 8.3 8.0 L 43.3 7.4 L 80.2 8.6 L 115.5 8.6 L 151.0 10.3 L 182.5 7.9 L 221.0 8.9 L 256.3 8.6 L 287.9 9.5 L 325.7 8.1 L 358.1 8.4 L 396.5 10.0 L 428.4 8.0 L 463.4 7.3 L 501.1 7.8 L 535.3 8.8 L 569.0 9.9 L 603.8 9.5 L 638.8 8.7 L 674.3 8.1 L 712.2 10.2 L 744.8 10.5 L 779.5 8.6 L 817.0 9.5 L 849.2 10.9 L 884.7 8.1 L 921.9 8.4 L 955.2 7.4 L 989.4 9.3 L 990.0 44.6 L 990.5 79.3 L 992.7 114.7 L 991.3 151.4 L 989.8 183.9 L 992.6 221.7 L 990.0 254.6 L 991.9 292.7 L 954.8 292.7 L 922.3 291.4 L 885.5 289.5 L 849.0 292.8 L 814.6 291.8 L 779.6 292.2 L 745.9 290.2 L 709.2 291.8 L 673.7 290.0 L 640.5 292.3 L 605.6 290.2 L 571.7 289.9 L 533.2 290.1 L 499.8 289.3 L 463.7 290.5 L 430.1 289.6 L 394.3 292.5 L 361.5 291.6 L 325.4 291.3 L 288.2 289.2 L 252.7 292.6 L 220.2 292.8 L 182.5 291.5 L 149.2 291.9 L 113.5 292.9 L 77.5 291.2 L 45.0 292.5 L 9.9 291.8 L 10.1 257.3 L 8.4 221.2 L 10.5 186.7 L 8.7 151.1 L 10.4 115.0 L 9.5 79.1 L 9.3 44.7 Z" fill="none" stroke="#15120F" stroke-width="4" stroke-linejoin="round" pathLength="1" class="draw"/>
  <g class="fade" style="animation-delay:.5s"><text x="30.0" y="42.0" font-family="'Trebuchet MS', 'Segoe UI', Tahoma, Verdana, sans-serif" font-size="11.5" font-weight="bold" letter-spacing="1.6" fill="#15120F" text-anchor="start" textLength="330" lengthAdjust="spacingAndGlyphs" >SOFTWARE DEVELOPER / AI-ML ENGINEER</text></g>
  <g class="fade" style="animation-delay:.5s"><text x="970.0" y="42.0" font-family="'Trebuchet MS', 'Segoe UI', Tahoma, Verdana, sans-serif" font-size="11.5" font-weight="bold" letter-spacing="1.6" fill="#15120F" text-anchor="end" textLength="168" lengthAdjust="spacingAndGlyphs" >NAVI MUMBAI, INDIA</text></g>
  <g transform="translate(76.0,108.0)"><g class="pop" style="animation-delay:0.25s"><g transform="translate(-76.0,-108.0)"><path d="M 28.8 62.4 L 62.0 63.1 L 92.0 61.7 L 122.7 62.2 L 121.8 93.6 L 120.8 124.0 L 120.7 154.3 L 91.3 153.2 L 61.2 154.0 L 30.3 155.2 L 29.3 122.0 L 29.4 93.2 Z" fill="#F4F0E4" stroke="#15120F" stroke-width="3" stroke-linejoin="round"/><text x="76.0" y="120.0" font-family="Impact, Haettenschweiler, 'Arial Narrow Bold', 'Franklin Gothic Heavy', sans-serif" font-size="44" font-weight="bold" letter-spacing="0.4" fill="#15120F" text-anchor="middle" textLength="58" lengthAdjust="spacingAndGlyphs" >AR.</text><line x1="40" y1="130" x2="112" y2="130" stroke="#DE3226" stroke-width="3"/><text x="76.0" y="146.0" font-family="'Trebuchet MS', 'Segoe UI', Tahoma, Verdana, sans-serif" font-size="11" font-weight="bold" letter-spacing="1.4" fill="#15120F" text-anchor="middle" >AI / ML</text></g></g></g>
  <g transform="translate(148.0,130.0)"><g class="pop" style="animation-delay:0.12s"><g transform="translate(-148.0,-130.0)"><text x="153.0" y="157.0" font-family="Impact, Haettenschweiler, 'Arial Narrow Bold', 'Franklin Gothic Heavy', sans-serif" font-size="76" font-weight="bold" letter-spacing="1" fill="#DE3226" text-anchor="start" textLength="452" lengthAdjust="spacingAndGlyphs" >ARYAN RANE</text><text x="148.0" y="152.0" font-family="Impact, Haettenschweiler, 'Arial Narrow Bold', 'Franklin Gothic Heavy', sans-serif" font-size="76" font-weight="bold" letter-spacing="1" fill="#15120F" text-anchor="start" textLength="452" lengthAdjust="spacingAndGlyphs" >ARYAN RANE</text></g></g></g>
  <g class="rise" style="animation-delay:.35s"><path d="M 142 176 L 884 168 L 888 214 L 146 222 Z" fill="#15120F"/><text x="166.0" y="206.0" font-family="Impact, Haettenschweiler, 'Arial Narrow Bold', 'Franklin Gothic Heavy', sans-serif" font-size="25" font-weight="bold" letter-spacing="1.6" fill="#F4F0E4" text-anchor="start" textLength="696" lengthAdjust="spacingAndGlyphs" >AGENTIC AI SYSTEMS  &#183;  LLM INFERENCE INFRASTRUCTURE</text></g>
  <g class="fade" style="animation-delay:.6s"><text x="150.0" y="252.0" font-family="'Trebuchet MS', 'Segoe UI', Tahoma, Verdana, sans-serif" font-size="12.5" font-weight="bold" letter-spacing="0.8" fill="#15120F" text-anchor="start" textLength="530" lengthAdjust="spacingAndGlyphs" >B.TECH CS (AIML)  &#183;  AI ENGINEER AT INNOVITI TECHNOLOGIES</text></g>
  <g class="fade" style="animation-delay:.7s"><rect x="30.0" y="196" width="1.4" height="42" fill="#15120F"/><rect x="34.6" y="196" width="1.4" height="42" fill="#15120F"/><rect x="38.4" y="196" width="3.4" height="42" fill="#15120F"/><rect x="44.2" y="196" width="1.4" height="42" fill="#15120F"/><rect x="48.0" y="196" width="3.4" height="42" fill="#15120F"/><rect x="54.6" y="196" width="2.4" height="42" fill="#15120F"/><rect x="58.6" y="196" width="3.4" height="42" fill="#15120F"/><rect x="63.6" y="196" width="1.4" height="42" fill="#15120F"/><rect x="67.4" y="196" width="1.4" height="42" fill="#15120F"/><rect x="72.0" y="196" width="2.4" height="42" fill="#15120F"/><rect x="76.0" y="196" width="1.4" height="42" fill="#15120F"/><rect x="79.0" y="196" width="3.4" height="42" fill="#15120F"/><rect x="84.8" y="196" width="1.4" height="42" fill="#15120F"/><rect x="89.4" y="196" width="1.4" height="42" fill="#15120F"/><rect x="93.2" y="196" width="1.4" height="42" fill="#15120F"/><rect x="96.2" y="196" width="3.4" height="42" fill="#15120F"/><rect x="102.0" y="196" width="2.4" height="42" fill="#15120F"/><rect x="106.0" y="196" width="3.4" height="42" fill="#15120F"/><rect x="111.8" y="196" width="3.4" height="42" fill="#15120F"/><text x="30.0" y="254.0" font-family="'Trebuchet MS', 'Segoe UI', Tahoma, Verdana, sans-serif" font-size="10" font-weight="bold" letter-spacing="1.6" fill="#15120F" text-anchor="start" >ARTECHIE0806</text></g>
</svg>
